<?xml version="1.0" encoding="utf-8"?>
<!-- Generator: Adobe Illustrator 18.0.0, SVG Export Plug-In . SVG Version: 6.00 Build 0)  -->
<!DOCTYPE svg PUBLIC "-//W3C//DTD SVG 1.1//EN" "http://www.w3.org/Graphics/SVG/1.1/DTD/svg11.dtd">
<svg version="1.1" id="Layer_1" xmlns="http://www.w3.org/2000/svg" xmlns:xlink="http://www.w3.org/1999/xlink" x="0px" y="0px"
	 width="174.8px" height="47.7px" viewBox="0 -5.6 174.8 47.7" enable-background="new 0 -5.6 174.8 47.7" xml:space="preserve">
<g>
	<path fill="#FFFFFF" d="M45.9,12.4C41,5.7,36.5,2.8,32.3,3.9l0,0C27.5-3.8,9.1,2.1,5.6,3.3c0,0-1.5,2.7-5.6,6.3L7.5,41
		c14.4-7.7,33.3-9.6,43.6-7.1c6.2,1.5,10.7,3.3,14.8,8.2l0.5-0.5C66.4,41.6,49.7,17.9,45.9,12.4"/>
	<path fill="#E2B900" d="M45.9,12.4C41,5.7,36.5,2.8,32.3,3.9l0,0C27.5-3.8,9.1,2.1,5.6,3.3c0,0-1.5,2.7-5.6,6.3L7.5,41
		c14.4-7.7,33.3-9.6,43.6-7.1c6.2,1.5,10.7,3.3,14.8,8.2l0.5-0.5C66.4,41.6,49.7,17.9,45.9,12.4 M36,12.8
		c-6.8-2.8-19.9,0.6-26.3,2.6L8.9,13C15.1,11,28.2,7.8,36,12.8 M8.7,12.4L7.9,9.9c5.4-1.7,20.2-5.6,27.1,0.4
		C27.8,6.5,12,11.3,8.7,12.4 M36.5,15.3C28.7,13.1,15,17,10.7,18.4L9.9,16C21.2,12.5,30.3,12.3,36.5,15.3 M37,18
		c-8.4-1.6-21.9,2.4-25.4,3.5l-0.8-2.4C21.8,15.7,30.4,15.4,37,18 M37.4,20.7c-8.7-1-21.7,2.8-24.7,3.8l-0.8-2.4
		C19.5,19.8,28.7,17.9,37.4,20.7 M37.8,23.5c-8.9-0.6-21.3,3.1-24.2,4l-0.8-2.4C21.8,22.5,29.8,21.3,37.8,23.5 M37.9,26.4
		c-6.7,0-14.8,1.8-19.6,3.1c-0.5,0.1-1.1,0.3-1.6,0.5c-0.9,0.2-1.5,0.4-2,0.6l-0.8-2.4C22.4,25.6,29.7,24.4,37.9,26.4 M48.5,30.8
		l-1.3-2.1c2.6-0.9,4.8,0.1,7.4,1.7C52.8,29.7,50.7,29.8,48.5,30.8 M46.9,28.1l-1.2-2c2.4-1,4.8-0.2,7.3,1.4
		C51.1,26.8,49.2,26.9,46.9,28.1 M45.3,25.5L44,23.3c2.8-1,5,0,7.7,2C49.6,24.3,47.9,24.2,45.3,25.5 M43.7,22.7l-1.3-2.1
		c2.5-0.9,5.1,0.1,7.6,1.9C48.1,21.7,46,21.6,43.7,22.7 M42.1,20.1l-1.3-2.2c2.7-0.9,5.5,0.3,8,2.3C46.7,19.2,44.5,18.9,42.1,20.1
		 M40.4,17.3l-1.3-2.2c0.1,0,0.2-0.1,0.4-0.1c2.9-0.9,5.3,0.6,8,3.2C45.1,16.6,43.2,16.1,40.4,17.3 M46.3,16.1
		c-2.4-1.8-4.3-2.5-7-1.7c-0.2,0.1-0.3,0.1-0.5,0.2l-1.3-2.1C40.8,11.3,43.4,13.2,46.3,16.1 M37.2,11.9L37.2,11.9L37.2,11.9
		l-1.3-2.1l0,0c3.3-1,6,0.7,8.8,3.5C42.2,11.6,40,10.8,37.2,11.9 M43.3,11c-2.4-1.9-4.9-2.8-7.8-1.8l0,0l-1.3-2.1l0,0
		C37.7,6.3,40.5,8.1,43.3,11 M32.7,4.5c0.7-0.1,1.3-0.2,2-0.1c1.3,0.1,2.6,0.6,4,1.5c1.1,0.7,2.2,1.7,3.2,2.8
		c-2.8-2.2-5.4-2.8-7.9-2.1l0,0L32.7,4.5L32.7,4.5z M33.5,7.5c-6.9-4-22.1,0.6-25.8,1.8L6.9,6.9C11.7,5.3,27.4,0.7,33.5,7.5
		 M8.4,3.1L8.4,3.1L8.4,3.1C8.5,3.1,8.5,3.1,8.4,3.1C8.5,3,8.5,3,8.4,3.1c6.3-1.8,19.7-4.9,23.4,1.3l0,0l0.3,0.5
		C25.6,0.4,10.4,5,6.7,6.3L5.9,3.8C6.5,3.7,7.3,3.4,8.4,3.1L8.4,3.1z M14.8,31.2c8.9-2.7,15.3-3.5,21.9-2.4
		c-7.1,0.4-15.6,2.6-21.2,4.6L14.8,31.2z"/>
	<path fill="#003A60" d="M70.3,16.1h-7.5V0.3h7.3c3.2,0,5.2,1.6,5.2,4.1l0,0c0,1.8-0.9,2.8-2.1,3.4c1.8,0.7,2.9,1.8,2.9,3.9l0,0
		C76.2,14.6,73.9,16.1,70.3,16.1 M71.9,5c0-1-0.8-1.6-2.3-1.6h-3.4v3.3h3.2C70.9,6.7,71.9,6.2,71.9,5L71.9,5z M72.8,11.3
		c0-1.1-0.8-1.7-2.6-1.7h-4V13h4.1C71.9,13,72.8,12.5,72.8,11.3L72.8,11.3z"/>
	<rect x="78.6" y="0.3" fill="#003A60" width="3.5" height="15.7"/>
	<path fill="#003A60" d="M92.9,16.1h-7.5V0.3h7.3c3.2,0,5.2,1.6,5.2,4.1l0,0c0,1.8-1,2.8-2.1,3.4c1.8,0.7,2.9,1.8,2.9,3.9l0,0
		C98.8,14.6,96.5,16.1,92.9,16.1 M94.5,5c0-1-0.8-1.6-2.3-1.6h-3.4v3.3H92C93.5,6.7,94.5,6.2,94.5,5L94.5,5z M95.4,11.3
		c0-1.1-0.8-1.7-2.6-1.7h-4V13h4.1C94.4,13,95.4,12.5,95.4,11.3L95.4,11.3z"/>
	<polygon fill="#003A60" points="101.4,16.1 101.4,0.3 104.8,0.3 104.8,12.9 112.7,12.9 112.7,16.1 	"/>
	<polygon fill="#003A60" points="115.2,16.1 115.2,0.3 127.1,0.3 127.1,3.4 118.7,3.4 118.7,6.6 126.1,6.6 126.1,9.7 118.7,9.7 
		118.7,13 127.2,13 127.2,16.1 	"/>
	<path fill="#003A60" d="M136.4,16.3c-2.4,0-4.8-0.8-6.7-2.5l2-2.4c1.4,1.2,2.9,1.9,4.7,1.9c1.4,0,2.3-0.6,2.3-1.5l0,0
		c0-0.9-0.5-1.3-3.2-2c-3.2-0.8-5.2-1.7-5.2-4.8l0,0c0-2.8,2.3-4.7,5.5-4.7c2.3,0,4.2,0.7,5.8,2l-1.8,2.6c-1.4-1-2.8-1.6-4.1-1.6
		s-2,0.6-2,1.4l0,0c0,1,0.7,1.4,3.4,2.1c3.2,0.8,5,2,5,4.7l0,0C142.2,14.5,139.8,16.3,136.4,16.3"/>
	<path fill="#003A60" d="M82.7,36.2l-1.4-3.5h-6.6l-1.4,3.5h-3.5l6.7-15.6h3.1l6.7,15.6H82.7z M78,24.7l-2.1,5H80L78,24.7z"/>
	<polygon fill="#003A60" points="100.1,36.2 100.1,26.1 95.7,32.7 95.7,32.7 91.3,26.2 91.3,36.2 88,36.2 88,20.7 91.6,20.7 
		95.7,27.3 99.8,20.7 103.5,20.7 103.5,36.2 	"/>
	<polygon fill="#003A60" points="106.8,36.2 106.8,20.7 118.4,20.7 118.4,23.8 110.1,23.8 110.1,26.9 117.4,26.9 117.4,29.9 
		110.1,29.9 110.1,33.2 118.6,33.2 118.6,36.2 	"/>
	<path fill="#003A60" d="M130.6,36.2l-3.3-5h-2.7v5h-3.4V20.7h7.1c1.8,0,3.3,0.4,4.3,1.4c1,0.9,1.5,2.2,1.5,3.8l0,0
		c0,1.3-0.3,2.3-0.9,3.1c-0.6,0.8-1.4,1.4-2.4,1.7l3.8,5.5H130.6z M130.6,26c0-0.7-0.2-1.3-0.7-1.7c-0.5-0.4-1.1-0.6-2-0.6h-3.4v4.5
		h3.5c0.8,0,1.5-0.2,1.9-0.6C130.4,27.3,130.6,26.7,130.6,26L130.6,26z"/>
	<rect x="136.9" y="20.7" fill="#003A60" width="3.4" height="15.5"/>
	<path fill="#003A60" d="M156.1,34.9c-0.4,0.3-0.9,0.6-1.4,0.9c-0.5,0.2-1.1,0.4-1.7,0.6c-0.6,0.1-1.3,0.2-2,0.2
		c-1.1,0-2.2-0.2-3.2-0.6c-1-0.4-1.8-1-2.5-1.7s-1.3-1.6-1.7-2.5c-0.4-1-0.6-2-0.6-3.1l0,0c0-1.1,0.2-2.1,0.6-3.1
		c0.4-1,1-1.8,1.7-2.6c0.7-0.7,1.6-1.3,2.5-1.7c1-0.4,2.1-0.6,3.3-0.6c0.7,0,1.4,0.1,2,0.2s1.1,0.3,1.6,0.5s0.9,0.5,1.3,0.8
		c0.4,0.3,0.8,0.6,1.2,1l-2.2,2.5c-0.6-0.5-1.2-1-1.9-1.3c-0.6-0.3-1.3-0.5-2.1-0.5c-0.7,0-1.3,0.1-1.8,0.4c-0.6,0.2-1,0.6-1.4,1
		s-0.7,1-0.9,1.5c-0.2,0.6-0.3,1.2-0.3,1.9l0,0c0,0.7,0.1,1.3,0.3,1.9s0.5,1.1,0.9,1.6c0.4,0.4,0.9,0.8,1.4,1.1
		c0.6,0.3,1.2,0.4,1.8,0.4c0.9,0,1.6-0.2,2.2-0.5c0.6-0.3,1.2-0.8,1.8-1.3l2.2,2.2C157,34.2,156.6,34.5,156.1,34.9"/>
	<path fill="#003A60" d="M171.2,36.2l-1.4-3.5h-6.6l-1.4,3.5h-3.5l6.6-15.6h3.1l6.6,15.6H171.2z M166.5,24.7l-2.1,5h4.1L166.5,24.7z
		"/>
	<path fill="#003A60" d="M144.5,14.3c0-0.4,0.3-0.8,0.7-0.8s0.6,0.3,0.6,0.5s-0.1,0.4-0.2,0.5c0.5,0,0.7-0.3,1.2-2.5l1-4.9h-1.4
		l0.2-0.6h1.3c0.5-2.4,1.6-3.5,2.9-3.5c0.9,0,1.4,0.5,1.4,1s-0.3,1-0.8,1c-0.4,0-0.6-0.2-0.6-0.6c0-0.3,0.1-0.6,0.3-0.8
		c-0.1-0.1-0.2-0.1-0.4-0.1c-1,0-1.4,0.9-1.7,2.5v0.6h1.8l-0.2,0.6h-1.7l-1,4.6c-0.5,2.6-1.5,3.4-2.5,3.4
		C144.8,15.1,144.5,14.8,144.5,14.3"/>
	<path fill="#003A60" d="M156.3,9c0,2.1-1.6,4-3.4,4c-1.5,0-2.3-1.1-2.3-2.6c0-2.1,1.6-4,3.4-4C155.4,6.4,156.3,7.5,156.3,9
		 M153.9,6.9c-1.4,0-2.3,2.3-2.3,3.9c0,1.1,0.5,1.6,1.2,1.6c1.4,0,2.3-2.3,2.3-3.9C155.2,7.4,154.6,6.9,153.9,6.9"/>
	<path fill="#003A60" d="M161.7,6.4c-0.8,0-1.5,1.1-2.4,2.9h-0.1c0.2-0.5,0.3-1.2,0.3-1.6c0-0.7-0.3-1.2-0.9-1.2
		c-0.6,0-1.1,0.5-1.5,1.3l0.5,0.2l0,0l0,0c0,0,0.2-0.4,0.5-0.6c0,0,0,0,0.1-0.1l0,0c0,0,0.1,0,0.1-0.1l0,0h0.1
		c0.3,0,0.4,0.2,0.1,1.3l-1.2,4.4h1.1c0.9-3.4,2.1-5.2,2.7-5.4c0,0.5,0.2,0.8,0.6,0.8c0.4,0,0.8-0.4,0.8-1
		C162.5,6.7,162.2,6.4,161.7,6.4"/>
</g>
</svg>
